<svg viewBox="0 0 14 14" fill="none" xmlns="http://www.w3.org/2000/svg">
<path d="M10.3633 2.99992H13.6966V4.33325H12.3633V12.9999C12.3633 13.1767 12.293 13.3463 12.168 13.4713C12.043 13.5963 11.8734 13.6666 11.6966 13.6666H2.36328C2.18647 13.6666 2.0169 13.5963 1.89188 13.4713C1.76685 13.3463 1.69661 13.1767 1.69661 12.9999V4.33325H0.363281V2.99992H3.69661V0.999919C3.69661 0.823108 3.76685 0.653538 3.89188 0.528514C4.0169 0.40349 4.18647 0.333252 4.36328 0.333252H9.69661C9.87343 0.333252 10.043 0.40349 10.168 0.528514C10.293 0.653538 10.3633 0.823108 10.3633 0.999919V2.99992ZM11.0299 4.33325H3.02995V12.3333H11.0299V4.33325ZM5.02995 6.33325H6.36328V10.3333H5.02995V6.33325ZM7.69661 6.33325H9.02995V10.3333H7.69661V6.33325ZM5.02995 1.66659V2.99992H9.02995V1.66659H5.02995Z" fill="#DF2626"/>
</svg>
